<svg x="0px" y="0px" viewBox="0 0 128 128" enable-background="new 0 0 128 128" xml:space="preserve" width="16" height="16">
		<path fill="#828282" d="M29.0752,51.7471h14.8686v47.792H29.0752V51.7471z M36.5137,27.9897c4.7514,0,8.6089,3.8589,8.6089,8.6133
			c0,4.7554-3.8575,8.6143-8.6089,8.6143c-4.7705,0-8.6172-3.8589-8.6172-8.6143C27.8965,31.8486,31.7432,27.9897,36.5137,27.9897 M53.2622,51.7471H67.5v6.5337h0.2041c1.9805-3.7574,6.8272-7.7198,14.0537-7.7198
				c15.0391,0,17.8184,9.896,17.8184,22.7671v26.211H84.7246V76.2979c0-5.542-0.0957-12.6719-7.7187-12.6719
				c-7.7286,0-8.9082,6.04-8.9082,12.2754v23.6377H53.2622V51.7471z"/></svg>
